<svg xmlns="http://www.w3.org/2000/svg" xmlns:xlink="http://www.w3.org/1999/xlink" viewBox="0,0,256,256" width="24px" height="24px" fill-rule="nonzero"><g fill="#5694dc" fill-rule="nonzero" stroke="none" stroke-width="1" stroke-linecap="butt" stroke-linejoin="miter" stroke-miterlimit="10" stroke-dasharray="" stroke-dashoffset="0" font-family="none" font-weight="none" font-size="none" text-anchor="none" style="mix-blend-mode: normal"><g transform="scale(5.12,5.12)"><path d="M25,2c-12.691,0 -23,10.309 -23,23c0,12.691 10.309,23 23,23c12.691,0 23,-10.309 23,-23c0,-12.691 -10.309,-23 -23,-23zM26.78516,12.03711h2.10156v4.78516c0,1.072 -0.03456,2.03472 -0.10156,2.88672h0.10156c0.979,-1.384 2.42952,-2.07617 4.35352,-2.07617c1.823,0 3.23624,0.62405 4.24023,1.87305c1.013,1.241 1.51758,2.99934 1.51758,5.27734c0,2.278 -0.5083,4.05236 -1.5293,5.31836c-1.013,1.257 -2.42252,1.88477 -4.22852,1.88477c-0.903,0 -1.72947,-0.16514 -2.48047,-0.49414c-0.743,-0.338 -1.36705,-0.85097 -1.87305,-1.54297h-0.15234l-0.44336,1.78516h-1.50586zM16.74609,17.60742c1.899,0 3.35986,0.71734 4.38086,2.15234h0.11328l0.30469,-1.89844h1.6582v20.10156h-0.00195h-2.09961v-5.9375c0,-0.844 0.04567,-1.56134 0.13867,-2.15234h-0.16602c-0.97,1.409 -2.42891,2.11328 -4.37891,2.11328c-1.789,0 -3.18545,-0.62777 -4.18945,-1.88477c-1.004,-1.257 -1.50586,-3.01162 -1.50586,-5.26562c0,-2.27 0.50653,-4.04241 1.51953,-5.31641c1.013,-1.274 2.42056,-1.91211 4.22656,-1.91211zM16.98633,19.36719c-1.232,0 -2.17598,0.48136 -2.83398,1.44336c-0.65,0.954 -0.97461,2.30378 -0.97461,4.05078c0,1.747 0.31994,3.08 0.96094,4c0.65,0.911 1.60805,1.36719 2.87305,1.36719c1.401,0 2.4215,-0.37495 3.0625,-1.12695c0.641,-0.751 0.98339,-2.01688 1.02539,-3.79687v-0.46875c0,-1.941 -0.32833,-3.33645 -0.98633,-4.18945c-0.657,-0.853 -1.70095,-1.2793 -3.12695,-1.2793zM32.9375,19.39258c-1.435,0 -2.46856,0.41423 -3.10156,1.24023c-0.633,0.819 -0.94922,2.20139 -0.94922,4.15039c0,1.949 0.32461,3.34741 0.97461,4.19141c0.65,0.835 1.69195,1.25195 3.12695,1.25195c1.291,0 2.25372,-0.4673 2.88672,-1.4043c0.633,-0.945 0.94922,-2.2985 0.94922,-4.0625c0,-1.806 -0.31622,-3.15306 -0.94922,-4.03906c-0.634,-0.886 -1.6125,-1.32812 -2.9375,-1.32812z"></path></g></g></svg>